 <svg xmlns="http://www.w3.org/2000/svg" viewBox="0 0 24 24" enable-background="new 0 0 24 24" fill="rgb(51, 51, 51)">
                        <path d="M7.59991 23.5313L14.9999 23.5313C16.0999 23.5313 16.9999 22.6172 16.9999 21.5L16.9999 7.28125C16.9999 6.16406 16.0999 5.25 14.9999 5.25L4.99991 5.25C3.89991 5.25 2.99991 6.16406 2.99991 7.28125L2.99991 18.8594L2.99991 21.5313C2.99991 22.6358 3.89534 23.5313 4.99991 23.5313L7.59991 23.5313ZM4.99991 7.28125L14.9999 7.28125L14.9999 21.5L8.99991 21.5L4.99991 21.5L4.99991 17.4375L4.99991 7.28125ZM20.9999 19.4687L18.9999 19.4687L18.9999 3.21875L6.99991 3.21875L6.99991 1.1875L18.9999 1.1875C20.0999 1.1875 20.9999 2.10156 20.9999 3.21875L20.9999 19.4687Z"></path></svg>
                       